<svg xmlns="http://www.w3.org/2000/svg" viewBox="0 0 240 180" role="img">
  <g fill="none" stroke="#f2c14e" stroke-width="3.5" stroke-linecap="round" stroke-linejoin="round">
    <path d="M70 78h64a10 10 0 0 1 10 10v4a10 10 0 0 1-10 10h-18v14h-12v-14H70"/>
    <path d="M70 70v32a8 8 0 0 1-8 8H50a8 8 0 0 1-8-8V70a8 8 0 0 1 8-8h12a8 8 0 0 1 8 8z"/>
    <path d="M108 78V52a6 6 0 0 1 6-6h6"/>
    <circle cx="132" cy="40" r="10"/>
    <path d="M110 116v18M110 146v6" opacity="0.8"/>
    <path d="M150 130c0 10-6 14-6 22a6 6 0 0 0 12 0c0-8-6-12-6-22z" opacity="0.7"/>
  </g>
  <g stroke="#f2c14e" stroke-width="2.5" stroke-linecap="round" opacity="0.5">
    <path d="M186 70h12M182 90l10 4M182 50l10-4"/>
  </g>
</svg>
